# xmcd CD database file
#
# Track frame offsets:
#	150
#	17523
#	29519
#	44864
#	59984
#	77384
#	93511
#	107299
#	124651
#	138609
#	152535
#
# Disc length: 2213 seconds
#
# Revision: 0
# Processed by: cddbd v1.5.2PL0 Copyright (c) Steve Scherf et al.
# Submitted via: CDex 1.70beta2
#
DISCID=8e08a30b
DTITLE=The Fox Brothers - Fox's Grocery
DYEAR=2005
DGENRE=Country
TTITLE0=If That Ain't Love
TTITLE1=Long As I Got You
TTITLE2=Lifetime Too Soon
TTITLE3=Like Ol' Hank
TTITLE4=Put A Little Love In Your Heart
TTITLE5=Tending To Todd
TTITLE6=Married And Still Looking
TTITLE7=It's Time For Love
TTITLE8=Daddy's Got A Dream
TTITLE9=Squares
TTITLE10=Tell God Goodnight
EXTD=YEAR: 2005
EXTT0=
EXTT1=
EXTT2=
EXTT3=
EXTT4=
EXTT5=
EXTT6=
EXTT7=
EXTT8=
EXTT9=
EXTT10=
PLAYORDER=
